<?xml version="1.0" encoding="UTF-8" standalone="no"?>
<!-- Created with Inkscape (http://www.inkscape.org/) -->

<svg
   width="62.441879mm"
   height="36.867161mm"
   viewBox="0 0 62.441879 36.867161"
   version="1.1"
   id="svg5"
   inkscape:version="1.1.2 (0a00cf5339, 2022-02-04)"
   sodipodi:docname="hamburgermenuicon.svg"
   xmlns:inkscape="http://www.inkscape.org/namespaces/inkscape"
   xmlns:sodipodi="http://sodipodi.sourceforge.net/DTD/sodipodi-0.dtd"
   xmlns="http://www.w3.org/2000/svg"
   xmlns:svg="http://www.w3.org/2000/svg">
  <sodipodi:namedview
     id="namedview7"
     pagecolor="#ffffff"
     bordercolor="#666666"
     borderopacity="1.0"
     inkscape:pageshadow="2"
     inkscape:pageopacity="0.0"
     inkscape:pagecheckerboard="true"
     inkscape:document-units="mm"
     showgrid="false"
     inkscape:zoom="2.9285943"
     inkscape:cx="147.8525"
     inkscape:cy="112.16986"
     inkscape:window-width="1916"
     inkscape:window-height="1040"
     inkscape:window-x="0"
     inkscape:window-y="18"
     inkscape:window-maximized="1"
     inkscape:current-layer="layer1"
     fit-margin-top="0"
     fit-margin-left="0"
     fit-margin-right="0"
     fit-margin-bottom="0" />
  <defs
     id="defs2">
    <inkscape:path-effect
       effect="fillet_chamfer"
       id="path-effect1398"
       is_visible="true"
       lpeversion="1"
       satellites_param="F,0,0,1,0,1.3229167,0,1 @ F,0,0,1,0,1.3229167,0,1 @ F,0,0,1,0,1.3229167,0,1 @ F,0,0,1,0,1.3229167,0,1"
       unit="px"
       method="auto"
       mode="F"
       radius="5"
       chamfer_steps="1"
       flexible="false"
       use_knot_distance="true"
       apply_no_radius="true"
       apply_with_radius="true"
       only_selected="false"
       hide_knots="false" />
    <inkscape:path-effect
       effect="fillet_chamfer"
       id="path-effect1396"
       is_visible="true"
       lpeversion="1"
       satellites_param="F,0,0,1,0,1.3229167,0,1 @ F,0,0,1,0,1.3229167,0,1 @ F,0,0,1,0,1.3229167,0,1 @ F,0,0,1,0,1.3229167,0,1"
       unit="px"
       method="auto"
       mode="F"
       radius="5"
       chamfer_steps="1"
       flexible="false"
       use_knot_distance="true"
       apply_no_radius="true"
       apply_with_radius="true"
       only_selected="false"
       hide_knots="false" />
    <inkscape:path-effect
       effect="fillet_chamfer"
       id="path-effect1394"
       is_visible="true"
       lpeversion="1"
       satellites_param="F,0,0,1,0,1.3229167,0,1 @ F,0,0,1,0,1.3229167,0,1 @ F,0,0,1,0,1.3229167,0,1 @ F,0,0,1,0,1.3229167,0,1"
       unit="px"
       method="auto"
       mode="F"
       radius="5"
       chamfer_steps="1"
       flexible="false"
       use_knot_distance="true"
       apply_no_radius="true"
       apply_with_radius="true"
       only_selected="false"
       hide_knots="false" />
  </defs>
  <g
     inkscape:label="Layer 1"
     inkscape:groupmode="layer"
     id="layer1"
     transform="translate(-68.215111,-103.08519)">
    <path
       style="fill:#ffffff;stroke-width:0.264583"
       id="rect247"
       width="62.441879"
       height="10.966374"
       x="68.215111"
       y="116.03558"
       inkscape:path-effect="#path-effect1396"
       d="m 69.538027,116.03558 h 59.796043 a 1.3229167,1.3229167 45 0 1 1.32292,1.32292 v 8.32054 a 1.3229167,1.3229167 135 0 1 -1.32292,1.32292 H 69.538027 a 1.3229167,1.3229167 45 0 1 -1.322916,-1.32292 v -8.32054 a 1.3229167,1.3229167 135 0 1 1.322916,-1.32292 z"
       sodipodi:type="rect" />
    <path
       style="fill:#ffffff;stroke-width:0.264583"
       id="rect247-0"
       width="62.441879"
       height="10.966374"
       x="68.215111"
       y="128.98598"
       inkscape:path-effect="#path-effect1398"
       d="m 69.538027,128.98598 h 59.796043 a 1.3229167,1.3229167 45 0 1 1.32292,1.32291 v 8.32054 a 1.3229167,1.3229167 135 0 1 -1.32292,1.32292 H 69.538027 a 1.3229167,1.3229167 45 0 1 -1.322916,-1.32292 v -8.32054 a 1.3229167,1.3229167 135 0 1 1.322916,-1.32291 z"
       sodipodi:type="rect" />
    <path
       style="fill:#ffffff;stroke-width:0.264583"
       id="rect247-1"
       width="62.441879"
       height="10.966374"
       x="68.215111"
       y="103.08519"
       inkscape:path-effect="#path-effect1394"
       d="m 69.538027,103.08519 h 59.796043 a 1.3229167,1.3229167 45 0 1 1.32292,1.32292 v 8.32054 a 1.3229167,1.3229167 135 0 1 -1.32292,1.32291 H 69.538027 a 1.3229167,1.3229167 45 0 1 -1.322916,-1.32291 v -8.32054 a 1.3229167,1.3229167 135 0 1 1.322916,-1.32292 z"
       sodipodi:type="rect" />
  </g>
</svg>
